<svg width="100%" height="100%" id="svg" viewBox="0 0 1440 490" xmlns="http://www.w3.org/2000/svg" class="transition duration-300 ease-in-out delay-150"><defs><linearGradient id="gradient" x1="10%" y1="79%" x2="90%" y2="21%"><stop offset="5%" stop-color="#0693e3"></stop><stop offset="95%" stop-color="#8ED1FC"></stop></linearGradient></defs><path d="M 0,500 C 0,500 0,125 0,125 C 69.04019237375473,141.0673308141532 138.08038474750947,157.13466162830642 210,148 C 281.91961525249053,138.86533837169358 356.7186533837169,104.52868430092751 427,100 C 497.2813466162831,95.47131569907249 563.0450017176229,120.75060116798352 630,139 C 696.9549982823771,157.24939883201648 765.1013397457918,168.46891102713843 837,171 C 908.8986602542082,173.53108897286157 984.54963929921,167.3737547234627 1047,151 C 1109.45036070079,134.6262452765373 1158.7001030573686,108.03607007901067 1222,102 C 1285.2998969426314,95.96392992098933 1362.6499484713158,110.48196496049466 1440,125 C 1440,125 1440,500 1440,500 Z" stroke="none" stroke-width="0" fill="url(#gradient)" fill-opacity="0.4" class="transition-all duration-300 ease-in-out delay-150 path-0" transform="rotate(-180 720 250)"></path><defs><linearGradient id="gradient" x1="10%" y1="79%" x2="90%" y2="21%"><stop offset="5%" stop-color="#0693e3"></stop><stop offset="95%" stop-color="#8ED1FC"></stop></linearGradient></defs><path d="M 0,500 C 0,500 0,250 0,250 C 58.07901064926142,261.056681552731 116.15802129852284,272.11336310546204 193,262 C 269.84197870147716,251.88663689453796 365.44692545517,220.60322913088285 428,221 C 490.55307454483,221.39677086911715 520.0542768807971,253.4737203710065 582,265 C 643.9457231192029,276.5262796289935 738.3359670216417,267.50188938509103 820,252 C 901.6640329783583,236.49811061490897 970.6018550326351,214.51872208862935 1038,205 C 1105.398144967365,195.48127791137065 1171.2566128478186,198.4232222603916 1238,208 C 1304.7433871521814,217.5767777396084 1372.3716935760908,233.78838886980418 1440,250 C 1440,250 1440,500 1440,500 Z" stroke="none" stroke-width="0" fill="url(#gradient)" fill-opacity="0.53" class="transition-all duration-300 ease-in-out delay-150 path-1" transform="rotate(-180 720 250)"></path><defs><linearGradient id="gradient" x1="10%" y1="79%" x2="90%" y2="21%"><stop offset="5%" stop-color="#0693e3"></stop><stop offset="95%" stop-color="#8ED1FC"></stop></linearGradient></defs><path d="M 0,500 C 0,500 0,375 0,375 C 74.47406389556855,368.92648574373067 148.9481277911371,362.85297148746133 224,354 C 299.0518722088629,345.14702851253867 374.6815527310203,333.5145997938852 438,339 C 501.3184472689797,344.4854002061148 552.3256612847819,367.0886293369976 622,369 C 691.6743387152181,370.9113706630024 780.0158021298522,352.1308828581243 852,345 C 923.9841978701478,337.8691171418757 979.6111301958092,342.38783923050494 1039,339 C 1098.3888698041908,335.61216076949506 1161.5396770869115,324.3177602198557 1229,329 C 1296.4603229130885,333.6822397801443 1368.2301614565442,354.34111989007215 1440,375 C 1440,375 1440,500 1440,500 Z" stroke="none" stroke-width="0" fill="url(#gradient)" fill-opacity="1" class="transition-all duration-300 ease-in-out delay-150 path-2" transform="rotate(-180 720 250)"></path></svg>